<svg width="400" height="401" viewBox="0 0 400 401" fill="none" xmlns="http://www.w3.org/2000/svg">
  <path fill-rule="evenodd" clip-rule="evenodd"
    d="M400 209.129C395.279 315.451 307.587 400.2 200.1 400.2C103.293 400.2 22.5428 331.455 4.00273 240.12H168.884V312.156C168.884 320.997 176.051 328.164 184.892 328.164C188.652 328.164 192.108 326.868 194.84 324.699C195.396 324.273 195.931 323.806 196.439 323.297L310.607 209.129H400ZM303.749 177.118C303.883 177.114 304.017 177.113 304.152 177.113H398.894C387.492 77.427 302.838 0 200.1 0C89.5878 0 0 89.5878 0 200.1C0 202.833 0.0547856 205.553 0.163318 208.259C0.894603 208.157 1.64172 208.104 2.4012 208.104H184.892C193.733 208.104 200.9 215.271 200.9 224.112L200.9 224.134V273.558L292.654 181.805C295.723 178.736 299.728 177.173 303.749 177.118Z"
    fill="#5400DD" />
</svg>