<svg width="459" height="689" viewBox="0 0 459 689" fill="none" xmlns="http://www.w3.org/2000/svg">
  <path
    d="M229.284 344.63C229.284 281.388 280.554 229.858 344.056 229.858C407.298 229.858 458.828 281.128 458.828 344.63C458.828 407.872 407.558 459.402 344.056 459.402C280.814 459.402 229.284 407.872 229.284 344.63Z"
    fill="#1ABCFE" />
  <path
    d="M0 573.914C0 510.672 51.27 459.142 114.772 459.142H229.544V573.914C229.544 637.156 178.274 688.686 114.772 688.686C51.27 688.686 0 637.416 0 573.914Z"
    fill="#0ACF83" />
  <path
    d="M229.284 0.574333V229.858H344.056C407.298 229.858 458.828 178.588 458.828 115.086C458.828 51.8444 407.558 0.314079 344.056 0.314079H229.284V0.574333Z"
    fill="#FF7262" />
  <path
    d="M0 115.346C0 178.588 51.27 230.118 114.772 230.118H229.544V0.574333H114.772C51.27 0.574333 0 51.8444 0 115.346Z"
    fill="#F24E1E" />
  <path
    d="M0 344.63C0 407.872 51.27 459.402 114.772 459.402H229.544V229.858H114.772C51.27 229.858 0 281.388 0 344.63Z"
    fill="#A259FF" />
</svg>