<svg width="8" height="6" viewBox="0 0 8 6" fill="none" xmlns="http://www.w3.org/2000/svg">
  <path
    d="M5.62583 4.1083L7.12415 3.24312C7.20359 3.19716 7.25268 3.11192 7.25268 3.02046V1.29009C7.25268 1.19862 7.20359 1.1134 7.12415 1.06744L5.62583 0.202253C5.54639 0.156295 5.44779 0.156741 5.36881 0.202253L3.87045 1.06744C3.79104 1.1134 3.74196 1.19862 3.74196 1.29009V4.38227L2.69115 4.98866L1.64034 4.38227V3.16906L2.69115 2.56267L3.38411 2.96289V2.14903L2.81965 1.82286C2.78082 1.80055 2.73623 1.7885 2.69115 1.7885C2.64607 1.7885 2.60147 1.80055 2.56265 1.82286L1.0643 2.68804C0.984874 2.734 0.935791 2.81924 0.935791 2.9107V4.64108C0.935791 4.73254 0.984874 4.81775 1.0643 4.86372L2.56265 5.72892C2.64206 5.77442 2.74024 5.77442 2.81965 5.72892L4.318 4.86372C4.39743 4.81775 4.4465 4.73254 4.4465 4.64108V1.54844L4.46524 1.53773L5.49687 0.942056L6.54768 1.54844V2.76167L5.49687 3.36806L4.8048 2.9687V3.78259L5.36835 4.10787C5.44779 4.15337 5.54639 4.15337 5.62537 4.10787L5.62583 4.1083Z"
    fill="url(#paint0_linear_1032_3)" />
  <defs>
    <linearGradient id="paint0_linear_1032_3" x1="0.915265" y1="4.81062" x2="6.98138" y2="1.28965"
      gradientUnits="userSpaceOnUse">
      <stop stop-color="#A726C1" />
      <stop offset="0.88" stop-color="#803BDF" />
      <stop offset="1" stop-color="#7B3FE4" />
    </linearGradient>
  </defs>
</svg>